<?xml version="1.0" standalone="no"?>
<!DOCTYPE svg PUBLIC "-//W3C//DTD SVG 20010904//EN"
 "http://www.w3.org/TR/2001/REC-SVG-20010904/DTD/svg10.dtd">
<svg version="1.0" xmlns="http://www.w3.org/2000/svg"
 width="300.000000pt" height="225.000000pt" viewBox="0 0 300.000000 225.000000"
 preserveAspectRatio="xMidYMid meet">

<g transform="translate(0.000000,225.000000) scale(0.100000,-0.100000)"
fill="#000000" stroke="none">
<path d="M1875 2066 c-179 -41 -388 -171 -565 -350 -56 -57 -61 -66 -41 -66
15 0 49 24 94 66 204 189 383 283 537 284 95 0 169 -41 197 -109 21 -49 18
-142 -6 -196 l-20 -46 62 3 62 3 24 60 c17 42 26 86 28 145 5 110 -11 143 -90
184 -67 34 -187 44 -282 22z"/>
<path d="M1854 1955 c-5 -12 -10 -13 -20 -4 -10 8 -27 7 -66 -6 -29 -10 -57
-21 -62 -26 -13 -12 1 -11 23 0 13 8 18 6 18 -5 0 -8 -6 -13 -14 -10 -7 3 -13
1 -13 -5 0 -6 -7 -6 -19 1 -21 11 -54 3 -46 -11 3 -4 -3 -14 -15 -21 -21 -13
-27 -28 -11 -28 5 0 16 7 25 15 8 9 18 16 21 15 24 -1 26 2 9 15 -22 17 -12
20 16 5 29 -16 121 35 102 56 -4 4 -1 4 7 -1 12 -7 11 -10 -2 -20 -13 -10 -2
-11 57 -7 73 4 73 4 108 -31 22 -22 37 -48 41 -71 5 -32 -8 -102 -27 -147 -5
-12 -1 -16 22 -17 26 0 30 4 45 52 24 75 23 170 -2 195 -11 11 -16 23 -13 27
4 4 1 4 -5 0 -7 -4 -13 -3 -13 2 0 14 -48 32 -67 25 -10 -4 -14 -2 -10 4 4 6
-11 10 -39 11 -32 2 -46 -2 -50 -13z m71 -15 c-4 -7 -65 -1 -65 6 0 3 15 4 34
2 19 -1 33 -5 31 -8z m60 -10 c4 -6 10 -8 15 -5 12 8 33 -23 24 -37 -6 -9 -3
-9 9 1 15 12 17 12 11 -4 -4 -11 -3 -16 2 -12 5 3 8 -11 6 -34 -2 -21 -8 -42
-13 -45 -5 -3 -6 9 -3 26 5 23 3 30 -7 28 -7 -2 -14 4 -15 12 0 8 -2 23 -2 33
-1 9 -7 17 -13 17 -5 0 -7 -5 -3 -12 4 -7 3 -8 -5 -4 -6 4 -8 12 -5 18 5 8 1
9 -10 5 -9 -4 -15 -3 -11 2 3 5 -1 12 -7 14 -8 4 -7 6 4 6 9 1 20 -4 23 -9z
m75 -160 c0 -5 -4 -10 -10 -10 -5 0 -10 5 -10 10 0 6 5 10 10 10 6 0 10 -4 10
-10z m-17 -32 c6 -23 -10 -41 -26 -31 -5 3 -4 9 2 13 7 3 9 14 5 23 -3 9 -2
17 4 17 5 0 12 -10 15 -22z m-13 -68 c0 -5 -7 -7 -15 -4 -8 4 -12 10 -9 15 6
11 24 2 24 -11z"/>
<path d="M1620 1875 c-7 -8 -18 -15 -24 -15 -7 0 -22 -11 -34 -25 -12 -14 -28
-25 -35 -25 -7 0 -51 -36 -97 -79 -57 -54 -78 -79 -65 -78 11 1 29 10 39 20
11 9 24 17 28 17 5 0 6 5 3 10 -3 6 -1 10 5 10 6 0 40 22 76 50 36 27 74 55
85 60 11 6 16 16 13 22 -4 6 1 17 11 24 10 8 16 16 13 19 -3 3 -11 -1 -18 -10z
m-30 -45 c0 -5 -2 -10 -4 -10 -3 0 -8 5 -11 10 -3 6 -1 10 4 10 6 0 11 -4 11
-10z m-25 -20 c-3 -5 -12 -10 -18 -10 -7 0 -6 4 3 10 19 12 23 12 15 0z m-43
-32 c-7 -7 -12 -8 -12 -2 0 6 3 14 7 17 3 4 9 5 12 2 2 -3 -1 -11 -7 -17z
m-22 -15 c0 -9 -3 -13 -7 -10 -3 4 -12 -2 -20 -13 -8 -11 -20 -20 -26 -19 -9
0 -8 2 1 6 6 2 9 10 5 16 -3 7 -3 9 2 5 5 -5 14 1 22 12 17 24 23 25 23 3z"/>
<path d="M812 1468 l3 -153 48 -3 47 -3 0 60 0 61 48 0 c64 0 94 18 109 64 16
47 8 80 -24 106 -22 17 -41 20 -130 20 l-104 0 3 -152z m166 63 c4 -26 -12
-41 -45 -41 -20 0 -23 5 -23 36 0 34 1 35 33 32 25 -2 33 -8 35 -27z"/>
<path d="M1130 1465 l0 -155 45 0 45 0 1 43 c1 23 0 52 -1 65 -1 16 4 22 18
22 14 0 31 -19 57 -65 l36 -65 49 0 c28 0 50 2 50 5 0 17 -53 107 -69 117 -18
11 -17 13 15 43 42 40 46 84 9 120 -23 24 -30 25 -140 25 l-115 0 0 -155z
m175 65 c0 -22 -5 -25 -42 -28 -42 -3 -43 -2 -43 28 0 30 1 31 43 28 37 -3 42
-6 42 -28z"/>
<path d="M1470 1464 l0 -155 48 3 47 3 3 153 3 152 -51 0 -50 0 0 -156z"/>
<path d="M1640 1465 l0 -155 35 0 35 0 0 112 c0 61 3 108 6 105 4 -4 19 -53
34 -109 l27 -103 34 0 34 0 27 103 c15 57 29 107 32 110 3 3 6 -45 6 -107 l0
-112 38 3 37 3 3 153 3 152 -65 0 -65 0 -10 -37 c-6 -21 -15 -59 -22 -85 -6
-27 -14 -48 -18 -48 -4 0 -16 37 -27 83 l-20 82 -62 3 -62 3 0 -156z"/>
<path d="M2050 1465 l0 -155 130 0 130 0 0 35 0 35 -86 0 -85 0 3 33 3 32 73
3 72 3 0 29 0 30 -75 0 c-73 0 -75 1 -75 25 0 25 1 25 85 25 l85 0 0 30 0 30
-130 0 -130 0 0 -155z"/>
<path d="M989 1243 c-46 -72 -104 -199 -129 -281 -29 -96 -25 -220 8 -274 60
-97 212 -98 425 -3 47 20 57 28 48 39 -9 11 -20 11 -64 -1 -28 -8 -95 -17
-147 -20 -109 -5 -151 10 -184 67 -25 41 -25 149 -2 237 21 78 76 211 105 252
l22 31 -26 0 c-20 0 -32 -11 -56 -47z"/>
<path d="M1106 1278 c3 -4 0 -8 -7 -8 -7 0 -10 -3 -6 -6 3 -3 -3 -14 -14 -25
-15 -15 -17 -24 -9 -39 9 -16 8 -18 -5 -14 -11 5 -14 2 -8 -12 5 -13 3 -15 -7
-9 -10 6 -12 4 -7 -8 3 -8 0 -17 -7 -20 -17 -7 -38 -77 -23 -77 6 0 3 -6 -6
-12 -9 -8 -23 -44 -32 -86 -17 -85 -19 -115 -6 -140 5 -9 12 -25 15 -34 3 -10
11 -18 18 -18 10 0 10 2 0 9 -10 6 -13 32 -10 106 1 53 6 99 11 102 4 2 5 14
1 25 -3 12 -2 18 3 15 5 -3 15 11 23 31 7 20 29 71 50 112 20 41 35 81 32 89
-3 8 0 11 6 7 5 -3 12 1 15 8 4 10 0 14 -13 13 -10 -1 -16 -5 -14 -9z m-12
-47 c3 -5 -1 -11 -9 -14 -9 -4 -12 -1 -8 9 6 16 10 17 17 5z"/>
<path d="M1848 1228 c-23 -35 -59 -85 -80 -112 l-39 -49 22 -15 c21 -15 25
-12 101 69 43 46 92 103 109 127 l30 42 -50 0 -50 0 -43 -62z"/>
<path d="M1355 1233 c48 -2 86 -9 95 -17 18 -17 62 -16 68 2 2 8 -7 12 -30 12
-18 1 -73 2 -123 4 -56 1 -60 1 -10 -1z"/>
<path d="M1262 1080 c0 -80 3 -133 5 -117 2 15 11 27 19 27 12 0 18 20 17 58
-1 10 2 10 13 1 8 -7 18 -8 22 -4 4 4 2 10 -4 12 -7 2 -9 13 -6 25 3 14 1 19
-6 14 -7 -4 -12 -2 -12 3 0 6 4 11 9 11 5 0 8 11 7 25 0 14 -4 25 -8 25 -7 0
-12 -16 -9 -32 0 -4 -6 -5 -14 -2 -10 4 -15 0 -15 -16 0 -13 4 -19 11 -14 7 4
10 1 7 -6 -2 -8 -10 -16 -16 -18 -18 -6 -15 83 3 98 9 7 15 8 15 2 0 -5 9 -8
20 -5 11 3 20 9 20 13 0 11 126 3 150 -10 19 -10 20 -10 9 8 -7 11 -18 18 -25
15 -6 -2 -15 0 -18 5 -3 5 -28 7 -56 5 -30 -2 -50 0 -50 7 0 5 -11 10 -25 10
-16 0 -25 -6 -25 -15 0 -20 -17 -19 -29 3 -7 12 -10 -25 -9 -128z m26 -46 c0
-17 -4 -22 -11 -15 -5 5 -7 17 -4 25 9 23 15 19 15 -10z"/>
<path d="M1523 1208 c-10 -16 -10 -68 0 -61 4 2 7 -8 7 -22 0 -18 -4 -24 -12
-19 -7 4 -10 3 -5 -1 4 -5 -1 -17 -10 -28 -17 -19 -17 -20 -1 -14 10 3 20 1
24 -5 4 -6 3 -8 -4 -4 -5 3 -12 1 -14 -6 -3 -7 -11 -9 -24 -3 -28 12 -72 18
-56 7 11 -7 10 -10 -3 -16 -23 -9 -27 -8 -19 5 5 8 -1 10 -19 7 -15 -3 -28 0
-31 6 -2 6 -5 3 -5 -6 -1 -10 4 -18 10 -18 5 0 8 -4 5 -9 -3 -5 5 -12 19 -15
13 -3 35 -18 48 -32 18 -19 27 -23 32 -14 6 9 4 11 -6 5 -12 -7 -12 -6 -1 7
10 12 9 18 -3 28 -8 7 -21 10 -28 7 -8 -3 -20 -1 -28 5 -11 8 -11 9 3 4 10 -3
20 -1 23 4 3 6 19 0 36 -12 21 -16 26 -24 17 -30 -7 -4 -9 -8 -5 -8 4 0 3 -9
-3 -20 -10 -19 -10 -20 9 -8 25 15 36 6 22 -19 -7 -12 -10 -14 -11 -4 0 8 -3
11 -6 8 -4 -4 0 -17 8 -29 25 -40 19 -50 -41 -78 -20 -9 -25 -27 -7 -27 8 0
14 5 13 11 -1 6 10 12 26 14 15 2 27 9 27 18 0 21 28 17 35 -6 9 -28 53 -60
72 -53 12 5 14 3 8 -8 -7 -11 -5 -11 10 1 17 14 18 13 12 -4 -6 -14 -4 -17 8
-12 8 3 15 2 15 -3 0 -4 7 -8 16 -8 19 0 -34 46 -54 47 -7 0 -10 5 -6 12 5 7
3 8 -6 3 -10 -6 -12 -4 -7 8 3 9 3 16 -1 16 -25 -4 -34 2 -23 15 9 11 6 17
-14 30 -23 15 -25 15 -26 -1 0 -13 -2 -14 -6 -4 -3 8 3 20 13 28 20 15 20 14
-58 90 -30 29 -27 48 6 39 14 -4 27 1 39 17 10 12 16 15 12 7 -4 -8 3 -4 14
10 24 29 27 107 4 88 -9 -7 -13 -7 -13 2 0 7 -6 10 -14 7 -10 -4 -12 4 -10 29
3 36 0 41 -13 22z m24 -100 c-3 -7 -5 -2 -5 12 0 14 2 19 5 13 2 -7 2 -19 0
-25z m27 -18 c-5 -5 -10 3 -11 18 -1 22 0 24 9 8 6 -10 6 -22 2 -26z m-57
-184 c-3 -7 -1 -18 5 -24 6 -6 5 -12 -4 -17 -7 -5 -10 -5 -6 0 4 4 3 14 -3 21
-6 7 -8 18 -4 24 9 15 18 12 12 -4z m81 -107 c12 -19 11 -19 -7 -10 -26 14
-36 31 -19 31 7 0 19 -9 26 -21z"/>
<path d="M1545 1200 c-8 -14 9 -34 23 -29 7 3 6 11 -3 22 -9 13 -15 15 -20 7z"/>
<path d="M1310 1003 c0 -21 3 -24 9 -14 5 8 7 20 4 28 -8 21 -13 15 -13 -14z"/>
<path d="M1667 1024 c-3 -3 -3 -13 0 -22 5 -11 3 -13 -7 -7 -8 5 -11 4 -6 -3
3 -6 2 -13 -4 -17 -6 -4 -8 -11 -5 -16 4 -5 1 -10 -4 -10 -6 -1 -14 -2 -18 -3
-30 -5 -60 -51 -41 -62 6 -4 8 -3 4 4 -3 6 -2 13 4 17 5 3 10 0 10 -7 0 -8 5
-6 11 5 6 9 14 15 19 12 11 -7 25 14 25 40 1 11 6 19 13 18 7 -2 11 0 11 5 -3
19 2 25 11 12 8 -13 10 -12 10 3 0 10 -7 17 -17 17 -15 0 -16 2 -3 10 8 5 10
10 4 10 -6 0 -13 -3 -17 -6z m-54 -99 c-3 -9 -8 -14 -10 -11 -3 3 -2 9 2 15 9
16 15 13 8 -4z"/>
<path d="M1700 1022 c0 -4 4 -12 10 -18 11 -11 2 -27 -25 -42 -18 -10 -17 -10
10 -7 17 2 33 4 38 4 4 1 7 6 7 12 0 5 -4 7 -10 4 -5 -3 -10 -1 -10 4 0 6 5
11 10 11 6 0 10 7 10 16 0 8 -4 12 -10 9 -5 -3 -10 -1 -10 4 0 6 -4 11 -10 11
-5 0 -10 -4 -10 -8z"/>
<path d="M1280 953 c3 -44 1 -55 -10 -48 -5 3 -10 1 -10 -4 0 -6 6 -11 13 -11
7 0 8 -3 2 -8 -15 -11 -17 -32 -2 -32 8 0 7 -4 -3 -10 -9 -6 -10 -10 -3 -10 6
0 18 7 27 15 8 8 18 15 21 15 4 0 5 -7 1 -15 -3 -8 -1 -15 4 -15 6 0 10 9 10
20 0 11 -5 20 -10 20 -7 0 -7 6 0 20 10 18 7 24 -12 21 -7 -1 -13 39 -9 62 0
4 -4 7 -10 7 -6 0 -10 -12 -9 -27z"/>
<path d="M1375 797 c-19 -23 -5 -74 17 -61 6 4 14 0 19 -7 7 -11 9 -11 9 2 0
9 -9 24 -19 33 -11 10 -17 24 -14 32 6 17 1 17 -12 1z"/>
<path d="M1410 770 c0 -5 5 -10 10 -10 6 0 10 5 10 10 0 6 -4 10 -10 10 -5 0
-10 -4 -10 -10z"/>
<path d="M1435 760 c-4 -12 -5 -24 -2 -27 3 -2 8 5 12 17 4 12 5 24 2 27 -3 2
-8 -5 -12 -17z"/>
<path d="M2274 489 c-73 -21 -118 -120 -94 -207 21 -80 76 -118 156 -109 48 5
78 25 100 69 13 25 12 27 -16 37 -28 9 -31 8 -45 -19 -25 -49 -99 -50 -125 0
-5 10 -10 43 -10 73 0 68 26 107 71 107 38 0 69 -16 69 -36 0 -11 7 -13 28 -8
36 9 37 10 24 38 -22 48 -96 74 -158 55z"/>
<path d="M230 330 l0 -161 28 3 c25 3 27 6 32 63 5 56 7 60 30 61 91 3 102 5
125 29 25 24 34 81 19 120 -12 30 -60 45 -149 45 l-85 0 0 -160z m164 94 c19
-18 20 -28 6 -55 -8 -15 -22 -19 -60 -19 l-50 0 0 45 0 45 44 0 c27 0 51 -6
60 -16z"/>
<path d="M530 332 l0 -157 30 0 30 -1 0 68 0 68 65 0 65 0 0 -65 c0 -36 3 -65
8 -66 4 0 17 -2 30 -5 l22 -4 0 160 0 160 -30 0 -30 0 0 -60 0 -60 -65 0 -65
0 0 60 0 60 -30 0 -30 0 0 -158z"/>
<path d="M931 468 c-5 -13 -32 -82 -60 -155 -28 -73 -51 -134 -51 -136 0 -5
60 -1 64 4 2 2 8 18 13 34 9 29 12 30 75 33 l66 3 12 -36 c6 -19 15 -36 18
-36 36 -6 62 -7 62 -1 0 4 -27 76 -61 160 l-61 152 -34 0 c-27 0 -36 -5 -43
-22z m67 -115 l20 -53 -44 0 c-24 0 -44 2 -44 4 0 2 6 19 14 37 7 19 16 43 20
53 8 24 10 22 34 -41z"/>
<path d="M1170 330 l0 -159 30 2 30 2 0 68 c0 64 1 67 24 67 25 0 69 -42 102
-99 10 -17 23 -32 29 -33 26 -4 65 -5 65 -1 0 9 -55 91 -78 116 -21 22 -23 27
-8 27 9 0 28 11 41 25 35 34 33 78 -4 116 -29 28 -32 29 -130 29 l-101 0 0
-160z m178 101 c8 -5 12 -21 10 -37 -3 -28 -5 -29 -65 -32 l-63 -3 0 41 0 40
53 0 c28 0 58 -4 65 -9z"/>
<path d="M1490 332 l0 -159 28 2 27 1 5 119 5 119 28 -117 c16 -64 32 -118 35
-118 54 -10 54 -10 86 116 l31 120 5 -120 5 -120 25 0 25 0 3 158 3 157 -50 0
c-57 0 -47 16 -86 -140 -9 -36 -18 -66 -20 -68 -1 -2 -15 44 -31 102 l-28 106
-48 0 -48 0 0 -158z"/>
<path d="M1896 343 c-31 -81 -56 -153 -56 -158 0 -6 12 -11 27 -11 21 0 29 8
42 38 l16 38 63 0 62 0 15 -38 c12 -28 22 -38 41 -40 13 -1 27 4 30 11 2 7
-22 78 -54 157 l-59 145 -35 3 -35 3 -57 -148z m112 22 c5 -16 13 -38 17 -47
6 -16 1 -18 -38 -18 l-45 0 21 55 c21 58 27 60 45 10z"/>
<path d="M2480 484 c0 -3 25 -44 55 -90 53 -82 55 -87 55 -153 l0 -67 30 0 30
0 0 66 c0 63 3 70 55 153 30 47 55 89 55 92 0 3 -15 5 -32 5 -30 0 -37 -6 -67
-60 -19 -33 -38 -60 -41 -60 -3 0 -20 27 -38 60 -31 55 -36 60 -68 60 -19 0
-34 -3 -34 -6z"/>
</g>
</svg>
