<?xml version="1.0" standalone="no"?>
<!DOCTYPE svg PUBLIC "-//W3C//DTD SVG 20010904//EN"
 "http://www.w3.org/TR/2001/REC-SVG-20010904/DTD/svg10.dtd">
<svg version="1.0" xmlns="http://www.w3.org/2000/svg"
 width="512.000000pt" height="512.000000pt" viewBox="0 0 512.000000 512.000000"
 preserveAspectRatio="xMidYMid meet">

<g transform="translate(0.000000,512.000000) scale(0.100000,-0.100000)"
fill="#000000" stroke="none">
<path d="M237 3512 c-3 -4 14 -14 39 -21 32 -10 44 -18 44 -32 0 -16 -7 -19
-40 -17 -26 1 -41 6 -43 17 -3 10 -5 8 -6 -6 0 -12 5 -26 13 -30 17 -10 32
-123 17 -123 -6 0 -11 6 -12 13 0 6 -4 2 -9 -10 -10 -25 -16 -416 -6 -432 4
-5 2 -13 -4 -16 -7 -4 -9 -44 -5 -113 12 -244 13 -347 2 -360 -8 -10 -7 -16 4
-23 8 -5 9 -9 3 -9 -6 0 -11 -23 -13 -51 -2 -39 1 -49 11 -43 10 5 11 4 1 -7
-7 -7 -13 -32 -13 -56 l0 -43 50 0 c43 0 49 2 43 18 -5 14 -3 15 8 5 7 -7 18
-13 23 -13 6 0 4 5 -4 10 -13 9 -13 11 0 20 11 7 16 5 18 -5 5 -20 22 -19 22
1 0 13 15 15 88 16 48 0 640 2 1317 4 958 3 1231 1 1237 -9 6 -9 8 -9 8 0 0 9
33 12 123 12 163 0 161 0 153 8 -4 4 -51 6 -103 5 -71 -3 -98 0 -105 10 -8 10
-11 10 -15 1 -7 -18 -21 -16 -26 5 -4 16 -5 16 -6 0 -1 -17 -74 -18 -1296 -18
-1217 0 -1295 1 -1305 18 -11 16 -11 16 -6 0 3 -12 0 -18 -10 -18 -8 0 -12 4
-9 10 4 7 -2 7 -19 0 -20 -7 -24 -6 -19 5 3 8 0 15 -6 15 -6 0 -11 -5 -11 -11
0 -6 -9 -8 -20 -4 -11 4 -20 2 -20 -4 0 -6 -4 -11 -10 -11 -18 0 -11 25 11 38
12 8 18 9 15 3 -4 -5 -2 -12 4 -16 5 -3 10 -3 10 2 0 4 56 9 125 10 78 1 123
-2 120 -8 -4 -5 12 -8 40 -7 25 0 41 4 34 8 -16 11 3 20 35 18 14 -1 26 -6 26
-11 0 -4 -7 -7 -16 -5 -10 2 -19 -1 -20 -7 -3 -6 20 -10 56 -10 45 0 59 3 55
12 -3 9 4 8 20 -3 14 -9 25 -12 25 -8 0 5 38 9 85 9 47 0 85 -3 85 -7 0 -5 7
-8 15 -8 8 0 15 3 15 8 0 13 183 13 192 -1 5 -9 8 -9 8 0 0 6 9 9 20 6 14 -4
20 -1 18 7 -3 14 60 22 68 9 2 -4 -4 -6 -16 -4 -11 2 -22 0 -24 -4 -3 -4 0 -8
7 -9 19 -3 141 -4 152 -2 6 2 15 1 20 0 6 -2 79 -3 163 -4 119 -1 151 2 147
12 -3 9 3 8 25 -3 18 -9 31 -11 35 -5 3 6 18 7 32 4 15 -4 24 -3 20 2 -3 6 3
10 13 10 10 0 16 -6 13 -13 -3 -7 -1 -13 5 -13 6 0 12 5 14 11 3 9 10 8 28 -1
18 -9 25 -10 28 -1 2 6 9 8 14 5 20 -13 128 -17 128 -5 0 6 7 11 16 11 8 0 12
-4 9 -10 -4 -6 14 -10 47 -10 41 1 49 3 35 11 -9 5 -23 7 -30 3 -9 -5 -9 -4
-1 5 10 10 17 10 35 0 28 -15 81 -19 90 -6 4 5 16 3 27 -4 16 -10 23 -10 35 0
12 9 16 9 20 -1 4 -10 8 -10 16 2 6 8 11 11 11 5 0 -12 151 -12 170 0 7 4 16
2 22 -6 7 -11 11 -11 15 -1 2 6 9 10 14 6 5 -3 9 0 9 5 0 6 8 11 18 11 13 0
14 -2 3 -9 -9 -6 0 -10 28 -13 45 -4 58 9 14 14 -16 2 4 4 42 5 39 0 76 -4 83
-9 8 -8 12 -6 12 4 0 10 8 13 30 10 28 -4 39 6 23 22 -4 3 -8 16 -10 27 -3 17
0 18 16 9 13 -7 22 -7 26 0 3 5 -1 10 -9 10 -9 0 -16 7 -16 15 0 9 6 12 17 8
10 -4 14 -2 9 5 -3 6 -1 14 5 17 5 4 8 13 5 21 -8 22 13 16 40 -11 30 -30 38
-32 24 -6 -15 29 -12 38 5 15 9 -12 14 -14 15 -6 0 8 5 10 13 6 7 -5 6 -1 -3
10 -17 21 -22 46 -9 46 5 0 9 -5 9 -11 0 -5 6 -7 13 -3 6 4 9 4 5 -1 -12 -13
10 -43 29 -41 10 2 22 -2 26 -8 6 -7 7 -6 4 4 -2 8 -12 15 -23 14 -13 -1 -19
6 -19 21 0 14 5 21 12 18 7 -3 10 -9 7 -14 -10 -17 29 -9 43 9 8 9 12 12 9 5
-7 -13 3 -43 14 -43 5 0 6 8 3 19 -3 10 1 22 8 26 7 5 10 4 5 -3 -3 -6 -2 -13
4 -17 6 -4 8 -11 5 -16 -4 -5 -2 -9 4 -9 12 0 25 56 16 70 -3 5 -2 10 4 10 5
0 12 -6 14 -12 7 -16 8 57 8 551 l0 403 55 -4 54 -5 -2 43 c-1 28 -7 46 -17
51 -22 10 -3138 16 -3144 5z m195 -24 c6 -10 8 -10 8 0 0 8 21 12 70 12 48 0
70 -4 70 -12 0 -9 3 -9 12 0 14 14 118 16 118 2 0 -5 5 -10 11 -10 5 0 7 5 4
10 -4 6 25 10 79 10 62 0 86 -4 87 -12 0 -10 2 -10 6 -1 7 18 743 18 744 0 0
-9 2 -9 6 1 6 16 761 16 780 0 9 -7 13 -7 13 1 0 16 282 15 298 -1 9 -9 12 -9
12 0 0 17 120 17 121 0 0 -10 2 -10 6 0 3 8 26 12 64 12 40 0 59 -4 59 -12 0
-9 3 -9 9 1 7 11 26 12 97 6 49 -4 100 -7 113 -6 14 0 28 -4 31 -10 4 -5 31
-11 60 -12 42 -2 54 -6 56 -19 2 -15 -6 -17 -56 -17 -50 1 -58 4 -52 18 5 14
4 14 -12 -2 -17 -16 -89 -17 -1277 -17 -986 0 -1259 3 -1260 13 0 9 -2 9 -6 0
-2 -7 -21 -13 -41 -13 -28 0 -33 3 -22 10 20 13 4 13 -20 0 -13 -7 -21 -7 -26
1 -4 8 -9 7 -16 -2 -7 -11 -11 -11 -14 -2 -4 9 -11 9 -29 1 -15 -7 -29 -7 -41
0 -11 6 -27 7 -41 1 -14 -5 -23 -5 -23 1 0 5 -12 5 -27 1 -43 -11 -73 -3 -73
20 0 12 7 19 20 19 11 0 20 4 20 8 0 13 53 13 62 0z m388 -82 c0 -3 -4 -8 -10
-11 -5 -3 -10 -1 -10 4 0 6 5 11 10 11 6 0 10 -2 10 -4z m1838 -3 c-10 -2 -28
-2 -40 0 -13 2 -5 4 17 4 22 1 32 -1 23 -4z m49 1 c-3 -3 -12 -4 -19 -1 -8 3
-5 6 6 6 11 1 17 -2 13 -5z m260 -1 c-8 -7 -218 -5 -226 2 -2 3 49 5 114 5 65
0 115 -3 112 -7z m73 -9 c0 -2 -15 -4 -32 -4 -23 0 -29 3 -19 9 12 8 51 4 51
-5z m169 12 c-10 -8 -129 -13 -129 -5 0 5 30 9 67 9 36 0 64 -2 62 -4z m-2579
-26 c0 -5 -4 -10 -10 -10 -5 0 -10 5 -10 10 0 6 5 10 10 10 6 0 10 -4 10 -10z
m-343 -752 c-3 -7 -5 -2 -5 12 0 14 2 19 5 13 2 -7 2 -19 0 -25z m0 -60 c-3
-8 -6 -5 -6 6 -1 11 2 17 5 13 3 -3 4 -12 1 -19z m2958 -99 c-7 -10 -36 -5
-33 7 2 5 6 8 10 7 4 -2 5 5 2 15 -5 15 -4 14 10 -2 8 -10 13 -22 11 -27z
m-2958 -11 c-3 -7 -5 -2 -5 12 0 14 2 19 5 13 2 -7 2 -19 0 -25z m496 15 c-7
-2 -19 -2 -25 0 -7 3 -2 5 12 5 14 0 19 -2 13 -5z m2217 -13 c0 -5 -5 -10 -11
-10 -5 0 -7 5 -4 10 3 6 8 10 11 10 2 0 4 -4 4 -10z m65 -30 c-5 -8 -11 -8
-17 -2 -6 6 -7 16 -3 22 5 8 11 8 17 2 6 -6 7 -16 3 -22z m-55 6 c0 -2 -8 -10
-17 -17 -16 -13 -17 -12 -4 4 13 16 21 21 21 13z m-30 -58 c0 -4 -4 -8 -10 -8
-5 0 -10 -6 -10 -14 0 -15 -24 -28 -34 -19 -12 12 -6 22 9 17 8 -4 15 -1 15 5
0 6 -6 11 -12 11 -10 0 -10 2 0 8 17 11 42 11 42 0z m-2525 -98 c3 -5 -1 -10
-10 -10 -9 0 -13 5 -10 10 3 6 8 10 10 10 2 0 7 -4 10 -10z m202 -26 c-3 -3
-12 -4 -19 -1 -8 3 -5 6 6 6 11 1 17 -2 13 -5z m-397 -68 c0 -3 -4 -8 -10 -11
-5 -3 -10 -1 -10 4 0 6 5 11 10 11 6 0 10 -2 10 -4z"/>
<path d="M255 3470 c-3 -5 -1 -10 4 -10 6 0 11 5 11 10 0 6 -2 10 -4 10 -3 0
-8 -4 -11 -10z"/>
<path d="M3721 3003 c-7 -13 -21 -15 -70 -10 -48 4 -61 2 -58 -7 3 -7 -1 -13
-9 -13 -7 0 -15 6 -18 14 -9 24 -56 16 -66 -12 -5 -14 -12 -25 -15 -25 -4 0
-3 5 1 12 4 7 3 8 -5 4 -17 -11 -61 -83 -61 -100 0 -8 -5 -16 -11 -18 -9 -3
-9 -45 -2 -158 6 -85 6 -162 2 -171 -5 -9 -3 -21 3 -27 6 -6 7 -18 3 -29 -5
-10 -9 -25 -9 -33 -1 -10 -15 -17 -41 -20 -39 -5 -40 -6 -11 -13 18 -5 33 -4
39 2 15 15 30 14 20 -1 -4 -7 -7 -22 -8 -32 0 -13 -9 -23 -25 -27 -17 -5 -19
-7 -7 -8 10 -1 15 -5 12 -11 -3 -5 -2 -10 3 -10 6 0 8 -9 5 -19 -3 -11 -10
-18 -17 -15 -9 3 -11 -13 -9 -61 3 -63 3 -65 -21 -65 -14 0 -30 8 -35 18 -10
16 -10 16 -11 0 0 -17 -60 -18 -1020 -18 -693 0 -1020 3 -1020 10 0 7 -6 7
-19 0 -13 -6 -177 -10 -465 -10 -439 0 -446 0 -446 -20 0 -18 7 -20 56 -20 45
0 61 -5 80 -22 13 -13 24 -30 24 -39 0 -8 7 -24 15 -35 8 -10 15 -35 15 -55 0
-43 4 -41 -140 -60 -100 -13 -122 -21 -103 -40 9 -9 39 -8 120 5 127 19 126
19 118 6 -3 -5 2 -10 12 -9 27 1 55 14 53 24 -1 10 54 23 99 24 16 1 37 -13
61 -39 36 -40 74 -52 96 -31 5 6 44 13 87 17 l77 7 0 -49 c0 -27 9 -68 20 -91
13 -30 15 -43 7 -44 -117 -4 -251 -23 -370 -50 -81 -19 -147 -36 -147 -39 0
-8 4567 -6 4575 1 13 14 -215 59 -352 70 -136 12 -144 11 -165 -7 l-22 -19 22
31 c33 47 45 83 51 149 6 58 7 60 36 63 17 2 44 10 62 18 17 7 38 14 48 14 33
0 73 29 79 57 17 88 19 106 7 99 -6 -4 -9 -12 -5 -17 3 -5 0 -8 -8 -7 -7 2
-12 -3 -10 -10 1 -8 -2 -11 -8 -7 -5 3 -10 12 -10 19 0 8 -11 21 -25 30 -24
16 -25 16 -25 -4 0 -11 -4 -20 -10 -20 -5 0 -10 -6 -10 -14 0 -12 -20 -26 -36
-26 -2 0 -4 10 -4 23 0 13 -7 32 -15 43 -8 10 -15 22 -15 27 0 4 32 7 71 7 44
0 68 4 64 10 -3 6 3 10 14 10 11 0 22 9 26 19 9 29 -23 129 -43 135 -43 12
-128 17 -320 18 -123 0 -212 5 -220 11 -9 7 -11 6 -7 -5 4 -11 -3 -19 -25 -26
-28 -10 -32 -9 -41 15 -12 31 -11 32 28 37 17 1 34 6 39 9 41 25 295 12 442
-23 42 -10 78 -17 79 -16 2 2 0 24 -3 50 -5 37 -14 52 -38 71 -64 48 -279 122
-318 109 -11 -3 -18 -2 -15 2 3 5 -34 10 -81 12 -73 3 -89 6 -101 23 -16 23
-46 26 -37 4 4 -11 -1 -15 -17 -14 -12 0 -17 3 -10 5 7 3 -1 32 -27 87 -20 45
-48 113 -61 150 -22 61 -22 69 -8 77 9 5 26 18 39 28 l24 19 -27 18 c-15 9
-45 18 -67 18 -22 1 -40 6 -40 11 0 4 -9 6 -20 3 -11 -3 -20 0 -20 6 0 7 -4 6
-9 -2 -8 -12 -12 -11 -27 4 -10 10 -20 13 -22 7 -4 -12 -81 -4 -100 11 -21 17
-61 16 -71 0z m117 -55 c-2 -6 -24 -13 -49 -15 -24 -2 -49 -5 -56 -8 -6 -2
-14 3 -17 11 -5 12 2 14 39 10 26 -3 45 -2 45 4 0 6 9 10 21 10 11 0 19 -5 17
-12z m1 -60 c-1 -18 -3 -25 -6 -15 -4 14 -8 16 -18 7 -16 -13 -60 -10 -60 5 0
6 17 11 38 13 20 2 37 7 37 13 0 5 2 9 5 9 3 0 4 -15 4 -32z m-179 3 c-12 -23
-29 -35 -36 -28 -10 9 16 47 32 47 11 0 12 -4 4 -19z m100 -50 c0 -26 -22 -41
-54 -39 -32 3 -32 5 -4 35 26 28 58 31 58 4z m238 -64 c27 -75 36 -114 33
-142 -2 -16 -85 -16 -107 -1 -16 12 -17 17 -6 41 7 14 9 31 6 36 -3 6 -8 35
-10 65 -3 44 -1 54 12 54 8 0 13 4 10 9 -5 8 7 18 26 20 3 1 20 -36 36 -82z
m-541 -74 c-2 -21 -4 -4 -4 37 0 41 2 58 4 38 2 -21 2 -55 0 -75z m392 45 l-1
-63 -12 40 c-9 28 -9 47 -3 63 6 12 12 22 14 22 1 0 3 -28 2 -62z m-159 -15
c0 -19 -5 -23 -30 -23 -25 0 -30 4 -30 25 0 22 4 25 30 23 24 -2 30 -7 30 -25z
m85 -34 c29 -84 30 -79 -13 -79 l-39 0 -7 60 c-4 33 -4 65 -1 71 11 17 47 -14
60 -52z m-73 -39 c2 -22 3 -40 2 -40 -19 0 -65 27 -69 41 -9 27 2 39 35 39 25
0 28 -4 32 -40z m-232 -54 c0 -3 -4 -8 -10 -11 -5 -3 -10 -1 -10 4 0 6 5 11
10 11 6 0 10 -2 10 -4z m415 -11 c39 -11 52 -12 64 -2 12 10 12 9 0 -10 -8
-13 -16 -23 -20 -23 -18 0 -109 32 -114 40 -9 14 14 12 70 -5z m378 -132 c-7
-2 -21 -2 -30 0 -10 3 -4 5 12 5 17 0 24 -2 18 -5z m75 -10 c-10 -2 -26 -2
-35 0 -10 3 -2 5 17 5 19 0 27 -2 18 -5z m65 -10 c-7 -2 -21 -2 -30 0 -10 3
-4 5 12 5 17 0 24 -2 18 -5z m-729 -35 c-1 -18 -3 -39 -3 -45 -1 -7 -5 -13 -9
-13 -5 0 -7 15 -5 33 8 61 21 81 17 25z m789 25 c-7 -2 -21 -2 -30 0 -10 3 -4
5 12 5 17 0 24 -2 18 -5z m-545 -98 c3 -3 -61 -5 -141 -5 -81 0 -147 4 -147 9
0 10 278 6 288 -4z m262 -43 c0 -26 -11 -34 -27 -21 -7 6 -13 7 -13 2 0 -15
-55 -42 -68 -34 -9 6 -4 15 20 33 55 41 88 49 88 20z m99 -26 c-2 -2 -22 -6
-44 -9 l-40 -6 40 13 c35 12 56 13 44 2z m-639 -6 c0 -5 -9 -10 -20 -10 -11 0
-20 5 -20 10 0 6 9 10 20 10 11 0 20 -4 20 -10z m813 3 c-7 -2 -19 -2 -25 0
-7 3 -2 5 12 5 14 0 19 -2 13 -5z m-321 -58 c-69 -62 -104 -135 -110 -231 -4
-62 -2 -75 12 -80 27 -10 18 -31 -13 -31 -24 0 -30 5 -34 26 -3 14 -1 33 3 42
5 8 10 41 12 72 2 31 7 57 11 57 5 0 6 4 3 9 -8 12 74 122 115 154 55 43 55
31 1 -18z m-74 1 c-13 -14 -28 -12 -28 5 0 5 9 9 20 9 17 0 19 -2 8 -14z
m-633 -76 c4 -6 -12 -10 -42 -10 -35 0 -44 3 -33 10 20 13 67 13 75 0z m-2671
-54 c38 -42 75 -103 55 -91 -79 48 -149 97 -149 104 0 9 20 17 49 20 7 0 27
-14 45 -33z m440 14 c-69 -22 -139 -78 -169 -134 -16 -30 -25 -36 -52 -36 -67
0 -106 25 -153 102 -25 40 -46 75 -48 80 -2 4 106 8 240 7 l243 0 -61 -19z
m1190 8 c-4 -6 -6 -32 -5 -58 1 -43 -1 -48 -23 -54 -49 -12 -462 -66 -511 -66
-27 -1 -69 -5 -93 -9 -40 -8 -43 -7 -48 18 -12 56 -40 105 -76 134 -21 17 -38
34 -38 39 0 4 180 8 401 8 299 0 398 -3 393 -12z m2070 -9 c39 -14 68 -35 100
-70 25 -28 53 -49 64 -49 24 0 37 -16 22 -25 -14 -9 -48 12 -83 52 -56 63
-170 104 -250 89 -19 -3 -49 -20 -67 -36 -19 -17 -39 -29 -44 -27 -6 2 -21 -8
-34 -22 -17 -19 -21 -21 -13 -6 5 11 22 32 38 46 74 69 167 86 267 48z m-934
-70 c0 -16 -4 -28 -8 -25 -5 3 -17 -9 -27 -27 -16 -27 -20 -29 -23 -13 -2 10
3 23 12 28 9 5 16 20 16 33 0 19 6 28 28 34 1 1 2 -13 2 -30z m1270 17 c0 -8
-4 -17 -9 -21 -12 -7 -24 12 -16 25 9 15 25 12 25 -4z m-4087 -43 c42 -27 55
-39 43 -41 -15 -3 -126 62 -126 74 0 12 29 0 83 -33z m733 23 c10 -8 17 -17
14 -19 -3 -3 -16 3 -29 14 -27 22 -15 26 15 5z m-358 -26 c-7 -10 -14 -17 -17
-15 -4 4 18 35 25 35 2 0 -1 -9 -8 -20z m3725 -8 c-3 -12 -10 -19 -15 -16 -13
8 -49 -26 -41 -39 3 -6 1 -7 -6 -3 -6 4 -23 1 -36 -8 l-23 -15 10 37 c13 49
22 57 62 54 19 -1 38 2 41 8 10 17 15 7 8 -18z m-2103 3 c0 -9 -9 -15 -22 -16
-13 0 -68 -1 -122 -3 -62 -1 -89 1 -70 6 16 4 62 8 102 9 39 1 72 5 72 10 0 5
9 9 20 9 11 0 20 -7 20 -15z m489 -15 c-14 -9 -29 -4 -29 10 0 12 34 18 39 7
2 -5 -3 -13 -10 -17z m-2545 -32 c-9 -15 -74 -9 -74 6 0 40 11 46 45 23 18
-12 31 -25 29 -29z m2291 42 c19 -5 -12 -8 -87 -9 -65 0 -121 -1 -125 -2 -4 0
-9 4 -11 10 -4 13 175 13 223 1z m1471 1 c-9 -14 4 -41 20 -41 17 0 18 12 2
29 -11 11 -9 11 9 2 23 -11 55 -53 67 -85 5 -15 4 -17 -8 -7 -12 10 -17 4 -29
-31 l-15 -43 -11 28 c-6 15 -16 27 -22 27 -8 0 -8 4 0 14 13 15 -1 32 -18 21
-5 -3 -13 0 -16 6 -4 5 -14 7 -24 3 -9 -4 -25 -6 -37 -6 -17 1 -20 -3 -16 -23
3 -16 0 -25 -8 -25 -9 0 -8 -5 3 -18 10 -11 13 -22 7 -32 -5 -8 -7 -17 -4 -21
2 -4 -7 -10 -20 -13 -28 -7 -28 -30 0 -51 10 -8 14 -15 8 -15 -6 0 -19 9 -29
20 -10 11 -15 20 -12 20 4 0 -2 15 -13 33 -24 38 -25 57 -5 57 20 0 19 27 -1
38 -15 8 -15 13 6 50 18 32 26 39 37 31 20 -17 46 -3 38 21 -6 18 -2 20 45 20
28 0 49 -4 46 -9z m-2916 -26 c14 -19 14 -19 -2 -6 -10 7 -18 18 -18 24 0 6 1
8 3 6 1 -2 9 -13 17 -24z m-170 -5 c12 -8 9 -10 -12 -10 -16 0 -28 5 -28 10 0
13 20 13 40 0z m1823 -7 c-7 -2 -19 -2 -25 0 -7 3 -2 5 12 5 14 0 19 -2 13 -5z
m1641 -1 c3 -5 -1 -9 -9 -9 -8 0 -15 4 -15 9 0 4 4 8 9 8 6 0 12 -4 15 -8z
m-3245 -86 c-1 -28 -4 -41 -6 -28 -2 12 -9 20 -14 17 -5 -4 -7 9 -5 27 2 18
-1 36 -6 39 -6 4 -7 12 -3 19 15 24 35 -21 34 -74z m-709 69 c0 -10 -41 -25
-52 -19 -8 5 -5 10 8 15 22 9 44 11 44 4z m576 -77 c0 -22 -4 -34 -9 -31 -6 4
-7 -4 -4 -19 8 -30 -20 -71 -61 -92 -54 -27 -166 5 -192 55 -10 18 -8 18 27
-5 52 -35 92 -41 136 -22 64 26 97 118 66 179 -10 19 -9 19 12 -3 16 -17 24
-38 25 -62z m940 47 c4 -8 12 -15 19 -15 7 0 15 -9 18 -20 5 -19 14 -20 129
-21 287 -4 990 1 999 6 5 4 10 21 10 38 l2 32 6 -35 6 -35 58 3 57 4 0 -51 0
-51 118 -1 c64 -1 122 -1 128 0 5 0 22 -12 37 -27 l27 -28 -63 9 c-79 12
-1989 20 -2159 10 -118 -8 -152 -4 -113 11 19 7 75 94 75 117 0 9 8 20 18 24
16 6 322 31 477 38 39 2 87 4 108 5 26 1 39 -3 43 -13z m1574 -15 c0 -5 -4
-10 -10 -10 -5 0 -10 5 -10 10 0 6 5 10 10 10 6 0 10 -4 10 -10z m-195 -20 c3
-5 35 -10 70 -10 l63 0 20 -40 19 -40 -113 0 -114 0 0 43 c0 24 3 47 7 50 10
10 41 8 48 -3z m708 -53 c-2 -4 -9 -4 -15 -1 -7 5 -9 1 -5 -9 4 -11 2 -14 -9
-10 -7 3 -14 0 -14 -6 0 -5 -9 -15 -21 -22 -17 -9 -24 -7 -38 8 -24 25 -16 40
18 35 22 -3 33 2 47 21 17 22 20 23 30 8 7 -9 10 -19 7 -24z m-403 -29 c0 -6
-6 -5 -15 2 -8 7 -15 14 -15 16 0 2 7 1 15 -2 8 -4 15 -11 15 -16z m385 -39
c-10 -15 -25 -10 -19 6 4 8 10 12 15 9 5 -3 7 -10 4 -15z m-74 -57 c-7 -2 -18
1 -23 6 -8 8 -4 9 13 5 13 -4 18 -8 10 -11z m-2756 -2 c-3 -5 -12 -10 -18 -10
-7 0 -6 4 3 10 19 12 23 12 15 0z"/>
<path d="M2128 2033 c7 -3 16 -2 19 1 4 3 -2 6 -13 5 -11 0 -14 -3 -6 -6z"/>
<path d="M1350 1746 c-25 -28 -28 -35 -12 -24 24 16 57 57 51 62 -2 1 -20 -16
-39 -38z"/>
<path d="M3392 2940 c0 -14 2 -19 5 -12 2 6 2 18 0 25 -3 6 -5 1 -5 -13z"/>
<path d="M222 2465 c0 -16 2 -22 5 -12 2 9 2 23 0 30 -3 6 -5 -1 -5 -18z"/>
<path d="M3340 2461 c0 -4 9 -12 20 -19 18 -11 25 -6 18 15 -4 9 -38 12 -38 4z"/>
<path d="M3100 2371 c0 -6 9 -9 19 -8 11 0 17 5 15 9 -7 11 -34 10 -34 -1z"/>
<path d="M3368 2373 c6 -2 18 -2 25 0 6 3 1 5 -13 5 -14 0 -19 -2 -12 -5z"/>
<path d="M3211 2354 c0 -11 3 -14 6 -6 3 7 2 16 -1 19 -3 4 -6 -2 -5 -13z"/>
<path d="M3170 2340 c6 -11 13 -20 16 -20 2 0 0 9 -6 20 -6 11 -13 20 -16 20
-2 0 0 -9 6 -20z"/>
<path d="M3280 2349 c0 -5 5 -7 10 -4 6 3 10 8 10 11 0 2 -4 4 -10 4 -5 0 -10
-5 -10 -11z"/>
<path d="M3353 2353 c9 -2 23 -2 30 0 6 3 -1 5 -18 5 -16 0 -22 -2 -12 -5z"/>
<path d="M3035 2339 c-4 -6 -5 -12 -2 -15 2 -3 7 2 10 11 7 17 1 20 -8 4z"/>
<path d="M3280 2299 c0 -5 5 -7 10 -4 6 3 10 8 10 11 0 2 -4 4 -10 4 -5 0 -10
-5 -10 -11z"/>
<path d="M2985 2290 c3 -5 8 -10 11 -10 2 0 4 5 4 10 0 6 -5 10 -11 10 -5 0
-7 -4 -4 -10z"/>
<path d="M470 2240 c0 -5 5 -10 11 -10 5 0 7 5 4 10 -3 6 -8 10 -11 10 -2 0
-4 -4 -4 -10z"/>
<path d="M515 2240 c3 -5 8 -10 11 -10 2 0 4 5 4 10 0 6 -5 10 -11 10 -5 0 -7
-4 -4 -10z"/>
<path d="M2830 2246 c0 -2 7 -6 15 -10 8 -3 15 -1 15 4 0 6 -7 10 -15 10 -8 0
-15 -2 -15 -4z"/>
<path d="M1240 2190 c0 -5 5 -10 11 -10 5 0 7 5 4 10 -3 6 -8 10 -11 10 -2 0
-4 -4 -4 -10z"/>
<path d="M3256 2181 c-4 -7 -5 -15 -2 -18 9 -9 19 4 14 18 -4 11 -6 11 -12 0z"/>
</g>
</svg>
